<?xml version="1.0" standalone="no"?>
<!DOCTYPE svg PUBLIC "-//W3C//DTD SVG 20010904//EN"
 "http://www.w3.org/TR/2001/REC-SVG-20010904/DTD/svg10.dtd">
<svg version="1.0" xmlns="http://www.w3.org/2000/svg"
 width="800.000000pt" height="800.000000pt" viewBox="0 0 800.000000 800.000000"
 preserveAspectRatio="xMidYMid meet">

<g transform="translate(0.000000,800.000000) scale(0.100000,-0.100000)"
fill="#000000" stroke="none">
<path d="M300 4000 l0 -4000 3850 0 3850 0 -2 473 -3 472 -365 5 -365 5 -3
2848 -2 2847 26 11 c17 6 157 8 368 7 l341 -3 3 668 2 667 -3850 0 -3850 0 0
-4000z m1830 2109 c4 -442 8 -549 19 -562 12 -15 44 -17 270 -17 141 0 262 -4
269 -8 10 -7 12 -126 10 -563 l-3 -554 -267 -5 c-200 -4 -270 -8 -280 -18 -11
-11 -13 -334 -14 -1713 -1 -935 -5 -1703 -8 -1707 -4 -4 -254 -7 -554 -7
l-547 0 -5 45 c-8 76 -5 5634 3 5648 7 9 124 12 555 10 l547 -3 5 -546z m3414
545 c15 -6 16 -266 16 -2849 0 -2583 -1 -2843 -16 -2849 -25 -10 -1088 -7
-1103 3 -13 8 -15 247 -16 1698 -1 928 -3 1695 -3 1705 -3 31 -59 38 -307 38
-212 0 -244 2 -249 16 -3 9 -6 260 -6 559 0 486 2 543 16 549 9 3 129 6 267 6
142 0 259 4 267 10 13 8 15 80 15 552 0 299 4 549 8 556 6 9 128 12 552 12
299 0 550 -3 559 -6z m-1696 -2829 c2 -508 1 -551 -15 -562 -25 -19 -1098 -19
-1110 0 -9 14 -17 1059 -8 1094 l5 23 563 -2 562 -3 3 -550z"/>
</g>
</svg>
